<svg xmlns="http://www.w3.org/2000/svg" viewBox="0 0 48 48"><defs><linearGradient id="a" x1="1" y1="19.01" x2="47" y2="19.01" gradientUnits="userSpaceOnUse"><stop offset="0" stop-color="#d3e6f5"/><stop offset="1" stop-color="#f0f7fc"/></linearGradient><linearGradient id="b" x1="24" y1="35.5" x2="33" y2="35.5" gradientUnits="userSpaceOnUse"><stop offset="0" stop-color="#54a5ff"/><stop offset="1" stop-color="#8ad3fe"/></linearGradient></defs><g data-name="Cloud Value"><path d="M47 27a6 6 0 0 1-6 6H11A10 10 0 0 1 1 23c0-6 5.38-10.44 10.35-10C17.06.91 34.91 3 37.69 16a4 4 0 0 1 3.18 5H41a6 6 0 0 1 6 6z" style="fill:url(#a)"/><path style="fill:#8ad3fe" d="m33 28-9 5-9-5 9-5 9 5z"/><path style="fill:#54a5ff" d="M24 33v10l-9-5V28l9 5z"/><path style="fill:url(#b)" d="M33 28v10l-9 5V33l9-5z"/></g></svg>