<svg xmlns="http://www.w3.org/2000/svg" viewBox="0 0 48 48"><defs><style>.cls-1{fill:#2d98f6}.cls-2{fill:#b9d5ea}.cls-3{fill:#48bdff}.cls-4{fill:#e8f0fb}</style></defs><g id="hub_terminal" data-name="hub terminal"><path class="cls-1" d="M10 42c-.55 0 0-.45 0-1v-3a1 1 0 0 1 2 0v3c0 .55-1.45 1-2 1z"/><path class="cls-1" d="M12 42c-5.77 0-4 .22-4-1a1 1 0 0 1 1-1h4a1 1 0 0 1 1 1c0 .55-1.45 1-2 1zM23 41v-3a1 1 0 0 1 2 0v3a1 1 0 0 1-2 0z"/><path class="cls-1" d="M26 42h-4a1 1 0 0 1 0-2h4a1 1 0 0 1 0 2zM36 41v-3a1 1 0 0 1 2 0v3a1 1 0 0 1-2 0z"/><path class="cls-1" d="M39 42h-4a1 1 0 0 1 0-2h4a1 1 0 0 1 0 2zM10 15v-3a1 1 0 0 1 2 0v3a1 1 0 0 1-2 0z"/><path class="cls-1" d="M13 16H9a1 1 0 0 1 0-2h4a1 1 0 0 1 0 2zM23 15v-3a1 1 0 0 1 2 0v3a1 1 0 0 1-2 0z"/><path class="cls-1" d="M26 16h-4a1 1 0 0 1 0-2h4a1 1 0 0 1 0 2zM36 15v-3a1 1 0 0 1 2 0v3a1 1 0 0 1-2 0z"/><path class="cls-1" d="M39 16h-4a1 1 0 0 1 0-2h4a1 1 0 0 1 0 2z"/><path class="cls-2" d="M23 30v-3a1 1 0 0 1 2 0v3a1 1 0 0 1-2 0zM23 21v-3a1 1 0 0 1 2 0v3a1 1 0 0 1-2 0zM16 21v-1h-5a1 1 0 0 1-1-1v-1a1 1 0 0 1 2 0h5a1 1 0 0 1 1 1v2a1 1 0 0 1-2 0zM36 30h-5a1 1 0 0 1-1-1v-2a1 1 0 0 1 2 0v1h5a1 1 0 0 1 1 1v1a1 1 0 0 1-2 0zM30 21v-2a1 1 0 0 1 1-1h5a1 1 0 0 1 2 0v1a1 1 0 0 1-1 1h-5v1a1 1 0 0 1-2 0zM10 30v-1a1 1 0 0 1 1-1h5v-1a1 1 0 0 1 2 0v2a1 1 0 0 1-1 1h-5a1 1 0 0 1-2 0z"/><rect class="cls-3" x="6" y="32" width="10" height="7" rx="1"/><rect class="cls-3" x="19" y="32" width="10" height="7" rx="1"/><rect class="cls-3" x="32" y="32" width="10" height="7" rx="1"/><rect class="cls-3" x="6" y="6" width="10" height="7" rx="1"/><rect class="cls-3" x="19" y="6" width="10" height="7" rx="1"/><rect class="cls-3" x="32" y="6" width="10" height="7" rx="1"/><path class="cls-1" d="M32 27H16a3 3 0 0 1 0-6h16a3 3 0 0 1 0 6z"/><path class="cls-4" d="M19 25h-2a1 1 0 0 1 0-2h2a1 1 0 0 1 0 2zM25 25h-2a1 1 0 0 1 0-2h2a1 1 0 0 1 0 2zM31 25h-2a1 1 0 0 1 0-2h2a1 1 0 0 1 0 2z"/></g></svg>