<svg xmlns="http://www.w3.org/2000/svg" viewBox="0 0 48 48"><defs><style>.cls-2{fill:#42a5f5}</style></defs><g id="Computer_Network" data-name="Computer Network"><path d="M42 3a3 3 0 0 0-3-3H9a3 3 0 0 0-3 3v6a3 3 0 0 0 .78 2A3 3 0 0 0 6 13v6a3 3 0 0 0 3 3h14v2.28a1.91 1.91 0 0 0-.72.72H11a1 1 0 0 0-1 1v4h2v-3h10.28a2 2 0 0 0 3.44 0H36v3h2v-4a1 1 0 0 0-1-1H25.72a1.91 1.91 0 0 0-.72-.72V22h14a3 3 0 0 0 3-3v-6a3 3 0 0 0-.78-2A3 3 0 0 0 42 9zm-2 16a1 1 0 0 1-1 1H9a1 1 0 0 1-1-1v-6a1 1 0 0 1 1-1h30a1 1 0 0 1 1 1zm0-10a1 1 0 0 1-1 1H9a1 1 0 0 1-1-1V3a1 1 0 0 1 1-1h30a1 1 0 0 1 1 1z" style="fill:#424242"/><rect class="cls-2" x="10" y="4" width="4" height="4" rx="1"/><rect class="cls-2" x="16" y="4" width="4" height="4" rx="1"/><path class="cls-2" d="M37 8a1 1 0 0 0 1-1V5a1 1 0 0 0-2 0v2a1 1 0 0 0 1 1zM33 8a1 1 0 0 0 1-1V5a1 1 0 0 0-2 0v2a1 1 0 0 0 1 1zM29 8a1 1 0 0 0 1-1V5a1 1 0 0 0-2 0v2a1 1 0 0 0 1 1z"/><rect class="cls-2" x="10" y="14" width="4" height="4" rx="1"/><rect class="cls-2" x="16" y="14" width="4" height="4" rx="1"/><path class="cls-2" d="M37 14a1 1 0 0 0-1 1v2a1 1 0 0 0 2 0v-2a1 1 0 0 0-1-1zM33 14a1 1 0 0 0-1 1v2a1 1 0 0 0 2 0v-2a1 1 0 0 0-1-1zM29 14a1 1 0 0 0-1 1v2a1 1 0 0 0 2 0v-2a1 1 0 0 0-1-1zM20 44V34a2 2 0 0 0-2-2H4a2 2 0 0 0-2 2v10H0v2a2 2 0 0 0 2 2h18a2 2 0 0 0 2-2v-2zM4 44V34h14v10zM46 44V34a2 2 0 0 0-2-2H30a2 2 0 0 0-2 2v10h-2v2a2 2 0 0 0 2 2h18a2 2 0 0 0 2-2v-2zm-16 0V34h14v10z"/></g></svg>